<svg width="130" height="34" viewBox="0 0 130 34" fill="none" xmlns="http://www.w3.org/2000/svg">
<path d="M32.6735 27V7.4H40.7375C42.4735 7.4 43.9575 7.68 45.1895 8.24C46.4402 8.8 47.4015 9.60267 48.0735 10.648C48.7455 11.6933 49.0815 12.9347 49.0815 14.372C49.0815 15.8093 48.7455 17.0507 48.0735 18.096C47.4015 19.1227 46.4402 19.916 45.1895 20.476C43.9575 21.0173 42.4735 21.288 40.7375 21.288H34.6895L36.3135 19.636V27H32.6735ZM45.4975 27L40.5415 19.888H44.4335L49.4175 27H45.4975ZM36.3135 20.028L34.6895 18.292H40.5695C42.1748 18.292 43.3788 17.9467 44.1815 17.256C45.0028 16.5653 45.4135 15.604 45.4135 14.372C45.4135 13.1213 45.0028 12.16 44.1815 11.488C43.3788 10.816 42.1748 10.48 40.5695 10.48H34.6895L36.3135 8.688V20.028ZM62.338 27.28C60.8073 27.28 59.398 27.028 58.11 26.524C56.822 26.02 55.702 25.32 54.75 24.424C53.798 23.5093 53.0606 22.4453 52.538 21.232C52.0153 20 51.754 18.656 51.754 17.2C51.754 15.744 52.0153 14.4093 52.538 13.196C53.0606 11.964 53.798 10.9 54.75 10.004C55.702 9.08933 56.822 8.38 58.11 7.876C59.398 7.372 60.798 7.12 62.31 7.12C63.8406 7.12 65.2406 7.372 66.51 7.876C67.798 8.38 68.918 9.08933 69.87 10.004C70.822 10.9 71.5593 11.964 72.082 13.196C72.6046 14.4093 72.866 15.744 72.866 17.2C72.866 18.656 72.6046 20 72.082 21.232C71.5593 22.464 70.822 23.528 69.87 24.424C68.918 25.32 67.798 26.02 66.51 26.524C65.2406 27.028 63.85 27.28 62.338 27.28ZM62.31 24.088C63.2993 24.088 64.214 23.92 65.054 23.584C65.894 23.248 66.622 22.772 67.238 22.156C67.854 21.5213 68.33 20.7933 68.666 19.972C69.0206 19.132 69.198 18.208 69.198 17.2C69.198 16.192 69.0206 15.2773 68.666 14.456C68.33 13.616 67.854 12.888 67.238 12.272C66.622 11.6373 65.894 11.152 65.054 10.816C64.214 10.48 63.2993 10.312 62.31 10.312C61.3206 10.312 60.406 10.48 59.566 10.816C58.7446 11.152 58.0166 11.6373 57.382 12.272C56.766 12.888 56.2806 13.616 55.926 14.456C55.59 15.2773 55.422 16.192 55.422 17.2C55.422 18.1893 55.59 19.104 55.926 19.944C56.2806 20.784 56.766 21.5213 57.382 22.156C57.998 22.772 58.726 23.248 59.566 23.584C60.406 23.92 61.3206 24.088 62.31 24.088ZM80.7427 27L74.2467 7.4H78.0267L83.8227 25.124H81.9467L87.9667 7.4H91.3267L97.1787 25.124H95.3587L101.295 7.4H104.767L98.2707 27H94.4067L89.0587 11.012H90.0667L84.6347 27H80.7427ZM116.725 27.28C115.194 27.28 113.785 27.028 112.497 26.524C111.209 26.02 110.089 25.32 109.137 24.424C108.185 23.5093 107.447 22.4453 106.925 21.232C106.402 20 106.141 18.656 106.141 17.2C106.141 15.744 106.402 14.4093 106.925 13.196C107.447 11.964 108.185 10.9 109.137 10.004C110.089 9.08933 111.209 8.38 112.497 7.876C113.785 7.372 115.185 7.12 116.697 7.12C118.227 7.12 119.627 7.372 120.897 7.876C122.185 8.38 123.305 9.08933 124.257 10.004C125.209 10.9 125.946 11.964 126.469 13.196C126.991 14.4093 127.253 15.744 127.253 17.2C127.253 18.656 126.991 20 126.469 21.232C125.946 22.464 125.209 23.528 124.257 24.424C123.305 25.32 122.185 26.02 120.897 26.524C119.627 27.028 118.237 27.28 116.725 27.28ZM116.697 24.088C117.686 24.088 118.601 23.92 119.441 23.584C120.281 23.248 121.009 22.772 121.625 22.156C122.241 21.5213 122.717 20.7933 123.053 19.972C123.407 19.132 123.585 18.208 123.585 17.2C123.585 16.192 123.407 15.2773 123.053 14.456C122.717 13.616 122.241 12.888 121.625 12.272C121.009 11.6373 120.281 11.152 119.441 10.816C118.601 10.48 117.686 10.312 116.697 10.312C115.707 10.312 114.793 10.48 113.953 10.816C113.131 11.152 112.403 11.6373 111.769 12.272C111.153 12.888 110.667 13.616 110.313 14.456C109.977 15.2773 109.809 16.192 109.809 17.2C109.809 18.1893 109.977 19.104 110.313 19.944C110.667 20.784 111.153 21.5213 111.769 22.156C112.385 22.772 113.113 23.248 113.953 23.584C114.793 23.92 115.707 24.088 116.697 24.088Z" fill="black"/>
<path d="M10 7C4.486 7 0 11.486 0 17C0 22.514 4.486 27 10 27C15.514 27 20 22.514 20 17C20 11.486 15.514 7 10 7ZM13 20L5 22L7 14L15 12L13 20Z" fill="black"/>
<path d="M10 19C11.1046 19 12 18.1046 12 17C12 15.8954 11.1046 15 10 15C8.89543 15 8 15.8954 8 17C8 18.1046 8.89543 19 10 19Z" fill="black"/>
</svg>
